# xmcd
#
# Track frame offsets: 
#        151
#        22537
#        41436
#        60633
#        80368
#        98061
#        118575
#        139594
#        158580
#        173579
#        190818
#        210988
#        223992
#        240095
#        260565
#        273872
#        288956
#        304832
#        317124
#
# Disc length: 4449 seconds
#
# Revision: 0
# Processed by: cddbd v1.5.1PL0 Copyright (c) Steve Scherf et al.
# Submitted via: ExactAudioCopy v0.95a3
#
DISCID=f3115f13
DTITLE=Various Artist - Русская Дискотека. Зимний Взрыв
DYEAR=1900
DGENRE=Pop
TTITLE0=Дискотека Авария - Новогодняя
TTITLE1=Руки Вверх! - Думала
TTITLE2=Таня Буланова И Dj Цветкоff - Тебя Люблю
TTITLE3=Наталья Ветлицкая - Мальчики
TTITLE4=Тату - Я Сошла С Ума (Ремикс)
TTITLE5=Валерия - Моя Москва (Happy Mix)
TTITLE6=Рома Жуков - Диво
TTITLE7=Иванушки International - Реви
TTITLE8=Виа Гра - Попытка #5
TTITLE9=Блестящие - Белым Снегом
TTITLE10=Оскар - Между Мной И Тобой (Ремикс)
TTITLE11=Божья Коровка - Самая Любимая Моя
TTITLE12=Стрелки - Я Не Ты, Ты Не Я
TTITLE13=Алла Пугачёва - Мадам Брошкина (Disco Mix 80's)
TTITLE14=Tomas - Ждин-Джак
TTITLE15=Найк Борзов - Лошадиум
TTITLE16=Абдула - Новогодняя
TTITLE17=Дюна - Новый Год В Бутылке
TTITLE18=Хамелеон - Апельсины В Кожуре
EXTD=
EXTT0=
EXTT1=
EXTT2=
EXTT3=
EXTT4=
EXTT5=
EXTT6=
EXTT7=
EXTT8=
EXTT9=
EXTT10=
EXTT11=
EXTT12=
EXTT13=
EXTT14=
EXTT15=
EXTT16=
EXTT17=
EXTT18=
PLAYORDER=
